 <svg  version="1.0" xmlns="http://www.w3.org/2000/svg"  width="300.000000pt" height="300.000000pt" viewBox="0 0 300.000000 300.000000"  preserveAspectRatio="xMidYMid meet">  <g transform="translate(0.000000,300.000000) scale(0.100000,-0.100000)" fill="#ff0000" stroke="none"> <path d="M1066 2944 c-26 -9 -46 -17 -44 -19 5 -5 108 25 108 31 0 6 -10 4 -64 -12z"/> <path d="M1870 2956 c0 -6 103 -36 108 -31 2 2 -20 11 -49 19 -58 18 -59 18 -59 12z"/> <path d="M1240 2875 c-207 -38 -444 -140 -600 -258 -289 -219 -477 -523 -546 -882 -24 -120 -24 -366 -1 -491 106 -581 559 -1035 1137 -1140 140 -26 383 -23 517 5 567 119 988 540 1110 1111 28 132 25 420 -5 559 -94 420 -363 771 -738 961 -117 60 -275 112 -403 134 -116 20 -365 20 -471 1z m425 -27 c213 -42 330 -77 347 -102 4 -6 8 -8 8 -3 0 11 89 -35 204 -106 74 -45 130 -91 217 -178 64 -64 130 -136 145 -160 15 -24 46 -73 69 -109 24 -36 49 -82 56 -102 7 -21 17 -38 21 -38 4 0 7 -3 6 -7 -2 -5 7 -33 18 -63 12 -30 27 -75 34 -100 6 -25 18 -67 25 -95 20 -74 35 -199 35 -295 0 -145 -17 -255 -61 -400 -20 -65 -82 -215 -99 -240 -10 -14 -20 -35 -24 -47 -4 -11 -13 -24 -21 -27 -8 -3 -15 -12 -15 -21 0 -20 -71 -116 -132 -179 -26 -27 -48 -51 -48 -53 0 -7 -64 -63 -73 -63 -4 0 -6 -4 -3 -8 3 -4 -13 -19 -35 -32 -21 -14 -39 -28 -39 -32 0 -4 -9 -9 -20 -13 -11 -3 -41 -23 -67 -43 -43 -34 -89 -57 -233 -120 -25 -11 -58 -23 -75 -27 -16 -5 -32 -9 -35 -10 -129 -39 -244 -55 -395 -55 -180 0 -294 20 -465 79 -25 9 -47 16 -50 17 -9 1 -65 28 -70 34 -3 3 -27 16 -55 28 -64 31 -147 85 -211 139 -28 23 -55 39 -59 35 -5 -4 -5 -2 -1 5 4 8 -9 24 -35 43 -23 16 -49 40 -57 53 -9 12 -39 49 -67 82 -29 33 -55 67 -58 75 -7 15 -25 45 -40 64 -20 28 -94 165 -85 160 6 -4 3 4 -5 17 -32 49 -80 222 -103 369 -8 52 -8 282 0 325 3 17 10 62 16 100 6 39 18 90 26 115 9 25 17 52 19 60 5 23 37 102 51 125 6 11 15 31 19 45 5 14 25 54 46 89 22 34 39 65 39 67 0 22 249 294 269 294 4 0 22 16 41 35 19 19 38 35 44 35 5 0 24 11 42 25 18 14 44 29 58 35 14 5 26 14 26 20 0 5 4 10 10 10 5 0 42 15 82 34 91 42 183 74 233 81 6 1 17 5 25 8 71 31 398 47 505 25z"/> <path d="M1315 2624 c-49 -7 -119 -22 -155 -34 -36 -12 -72 -23 -81 -25 -26 -6 -173 -77 -187 -92 -7 -7 -18 -13 -23 -13 -28 0 -289 -231 -289 -255 0 -3 -12 -19 -27 -36 -42 -47 -130 -216 -154 -296 -12 -40 -26 -73 -31 -73 -5 0 -7 -4 -4 -8 2 -4 -2 -39 -11 -77 -23 -103 -23 -346 0 -455 23 -106 62 -220 99 -283 15 -26 28 -50 28 -52 0 -10 93 -147 112 -165 12 -11 19 -20 15 -20 -9 0 108 -110 176 -164 114 -92 325 -187 482 -216 71 -14 240 -19 350 -11 33 3 98 16 145 29 47 13 94 26 105 29 102 27 327 173 431 279 97 99 244 325 244 376 0 8 5 19 11 25 6 6 12 21 14 34 2 13 14 60 26 104 20 70 23 103 23 265 1 172 -1 192 -27 285 -15 55 -32 109 -36 120 -8 18 -12 28 -21 60 -2 6 -17 33 -33 60 -16 28 -38 65 -49 84 -43 76 -226 281 -250 281 -5 0 -23 13 -41 30 -18 16 -35 30 -39 30 -4 0 -13 6 -20 13 -21 22 -139 79 -218 107 -199 70 -380 91 -565 64z m356 -39 c425 -74 773 -397 886 -822 23 -87 26 -117 27 -268 0 -189 -14 -268 -74 -420 -167 -421 -572 -697 -1025 -698 -323 -1 -592 115 -821 354 -246 258 -349 622 -277 979 88 443 446 794 890 874 104 19 290 19 394 1z"/> <path d="M1289 2304 c-253 -54 -479 -240 -585 -481 -68 -153 -87 -377 -45 -538 44 -169 150 -336 283 -445 75 -61 236 -141 333 -166 112 -28 305 -24 418 10 111 33 193 74 284 142 86 64 122 109 139 173 36 142 -69 277 -215 275 -65 -1 -108 -20 -169 -76 -24 -22 -69 -52 -100 -66 -50 -24 -69 -27 -162 -27 -93 0 -112 3 -162 27 -79 37 -152 108 -190 185 -41 84 -50 200 -23 288 71 224 326 337 536 238 35 -16 88 -50 117 -75 83 -72 160 -85 247 -44 85 40 128 108 127 202 0 69 -20 110 -78 167 -102 101 -254 181 -403 213 -84 17 -266 17 -352 -2z m395 -43 c44 -12 89 -29 100 -39 11 -9 16 -11 12 -5 -5 9 -2 11 8 7 9 -3 16 -9 16 -13 0 -4 16 -13 35 -20 31 -11 128 -84 175 -131 98 -99 67 -262 -60 -312 -71 -28 -152 -4 -232 68 -111 100 -307 124 -451 54 -37 -18 -67 -36 -67 -41 0 -5 -5 -9 -10 -9 -12 0 -69 -56 -87 -85 -12 -20 -45 -85 -48 -95 -1 -3 -6 -14 -11 -25 -5 -11 -9 -69 -9 -130 0 -102 2 -115 31 -175 18 -38 52 -85 80 -112 49 -47 118 -98 133 -98 4 0 22 -7 39 -15 102 -51 313 -8 409 83 17 17 34 28 37 25 3 -4 6 -2 6 4 0 5 18 18 40 28 117 53 264 -44 259 -170 -1 -27 -9 -63 -17 -80 -25 -52 -145 -158 -204 -182 -21 -8 -38 -19 -38 -25 0 -5 -4 -6 -10 -3 -5 3 -10 1 -10 -4 0 -6 -3 -10 -7 -9 -8 1 -32 -7 -68 -23 -11 -5 -31 -10 -45 -12 -14 -2 -33 -7 -43 -12 -60 -26 -367 -14 -403 16 -6 5 -16 9 -20 8 -22 -5 -145 56 -219 107 -68 47 -198 181 -189 195 3 5 1 9 -5 9 -11 0 -59 91 -96 181 -57 142 -58 356 -1 534 1 6 8 23 14 38 7 16 12 30 12 32 0 11 78 135 104 165 51 58 136 142 136 134 0 -4 6 -1 13 8 30 40 224 125 337 148 73 15 265 4 354 -19z"/> <path d="M1420 1639 c-60 -24 -100 -85 -100 -151 0 -95 72 -162 168 -155 65 5 99 28 130 90 27 53 24 101 -9 156 -34 56 -126 85 -189 60z m86 -32 c4 -4 14 -7 21 -7 17 0 46 -27 62 -57 16 -31 14 -79 -5 -114 -17 -34 -88 -71 -122 -64 -56 10 -112 69 -112 117 0 26 30 90 50 105 29 24 91 35 106 20z"/> <path d="M633 2731 c-38 -27 -94 -72 -124 -101 l-54 -52 65 54 c36 30 90 72 120 93 62 43 76 55 69 55 -3 0 -37 -22 -76 -49z"/> <path d="M2295 2774 c6 -6 35 -28 65 -49 30 -21 84 -64 120 -94 36 -30 52 -40 35 -22 -16 18 -61 56 -100 86 -69 52 -139 98 -120 79z"/> <path d="M372 2496 c-44 -48 -127 -158 -144 -191 -15 -29 3 -8 47 55 21 30 63 83 93 118 62 71 64 84 4 18z"/> <path d="M2631 2480 c30 -36 73 -90 94 -120 45 -64 67 -88 41 -45 -32 52 -123 169 -157 200 -18 17 -8 1 22 -35z"/> <path d="M2923 1966 c3 -8 11 -33 17 -56 6 -23 13 -40 16 -38 5 6 -25 108 -32 108 -4 0 -4 -6 -1 -14z"/> <path d="M2936 1079 c-8 -29 -13 -55 -11 -57 2 -2 11 20 19 49 9 29 14 54 12 56 -2 3 -11 -19 -20 -48z"/> <path d="M234 685 c31 -51 123 -169 152 -195 16 -14 6 2 -22 35 -27 33 -67 85 -89 115 -45 64 -66 88 -41 45z"/> <path d="M2734 653 c-21 -32 -66 -89 -98 -128 -33 -38 -45 -56 -27 -40 46 42 183 225 169 225 -3 0 -22 -26 -44 -57z"/> <path d="M485 391 c31 -34 148 -125 200 -157 43 -26 19 -4 -45 41 -30 21 -84 64 -120 94 -36 30 -51 40 -35 22z"/> <path d="M2485 374 c-27 -25 -79 -66 -115 -91 -73 -52 -101 -76 -55 -49 49 30 168 122 199 155 43 44 29 37 -29 -15z"/> <path d="M1020 76 c0 -7 102 -37 108 -32 2 3 -15 10 -38 16 -23 6 -48 14 -56 17 -8 3 -14 3 -14 -1z"/> <path d="M1917 63 c-27 -8 -47 -17 -45 -19 5 -5 108 25 108 31 0 7 -7 5 -63 -12z"/> </g> </svg> 